<svg width="21" height="20" viewBox="0 0 21 20" fill="none" xmlns="http://www.w3.org/2000/svg">
<path d="M18.1055 0.125C19.2227 0.125 20.168 1.07031 20.168 2.1875V17.3125C20.168 18.4727 19.2227 19.375 18.1055 19.375H12.1758V12.8438H14.668L15.1406 9.75H12.1758V7.77344C12.1758 6.91406 12.6055 6.09766 13.9375 6.09766H15.2695V3.47656C15.2695 3.47656 14.0664 3.26172 12.8633 3.26172C10.457 3.26172 8.86719 4.76562 8.86719 7.42969V9.75H6.16016V12.8438H8.86719V19.375H2.98047C1.82031 19.375 0.917969 18.4727 0.917969 17.3125V2.1875C0.917969 1.07031 1.82031 0.125 2.98047 0.125H18.1055Z" fill="white"/>
</svg>
