<svg width="18" height="18" viewBox="0 0 18 18" fill="none" xmlns="http://www.w3.org/2000/svg">
<path d="M14 0C16.2092 0 18 1.79086 18 4V14C18 16.2092 16.2092 18 14 18H4C1.79086 18 0 16.2092 0 14V4C0 1.79086 1.79086 0 4 0H14ZM9 4.09961C6.29379 4.09961 4.09961 6.29379 4.09961 9C4.09961 11.7062 6.29379 13.9004 9 13.9004C11.7062 13.9004 13.9004 11.7062 13.9004 9C13.9004 6.29379 11.7062 4.09961 9 4.09961ZM9 5.90039C10.7121 5.90039 12.0996 7.28791 12.0996 9C12.0996 10.7121 10.7121 12.0996 9 12.0996C7.28791 12.0996 5.90039 10.7121 5.90039 9C5.90039 7.28791 7.28791 5.90039 9 5.90039ZM14.5 2.5C13.9477 2.5 13.5 2.9477 13.5 3.5C13.5 4.0523 13.9477 4.5 14.5 4.5C15.0523 4.5 15.5 4.0523 15.5 3.5C15.5 2.9477 15.0523 2.5 14.5 2.5Z" fill="white"/>
</svg>
