<svg width="21" height="20" viewBox="0 0 21 20" fill="none" xmlns="http://www.w3.org/2000/svg">
<path d="M18.793 0.125C19.5234 0.125 20.168 0.769531 20.168 1.54297V18C20.168 18.7734 19.5234 19.375 18.793 19.375H2.25C1.51953 19.375 0.917969 18.7734 0.917969 18V1.54297C0.917969 0.769531 1.51953 0.125 2.25 0.125H18.793ZM6.71875 16.625V7.47266H3.88281V16.625H6.71875ZM5.30078 6.18359C6.20312 6.18359 6.93359 5.45312 6.93359 4.55078C6.93359 3.64844 6.20312 2.875 5.30078 2.875C4.35547 2.875 3.625 3.64844 3.625 4.55078C3.625 5.45312 4.35547 6.18359 5.30078 6.18359ZM17.418 16.625V11.5977C17.418 9.14844 16.8594 7.21484 13.9805 7.21484C12.6055 7.21484 11.6602 7.98828 11.2734 8.71875H11.2305V7.47266H8.52344V16.625H11.3594V12.1133C11.3594 10.9102 11.5742 9.75 13.0781 9.75C14.5391 9.75 14.5391 11.125 14.5391 12.1562V16.625H17.418Z" fill="white"/>
</svg>
