<svg width="315" height="66" viewBox="0 0 315 66" fill="none" xmlns="http://www.w3.org/2000/svg">
<path d="M119.599 28.3097L119.536 8.20312H113.967L107.588 18.8792L101.04 8.20312H95.4707V28.3097H101.645V19.4664L106.013 26.4948H109.003L113.362 19.1461L113.424 28.3097H119.599Z" fill="white"/>
<path d="M129.537 23.1941V20.5251H138.033V15.6675H129.537V13.3454H139.207V8.20312H122.873V28.3097H139.581V23.1941H129.537Z" fill="white"/>
<path d="M142.197 28.3097H152.099C158.825 28.3097 163.443 24.4841 163.443 18.2564C163.443 12.0287 158.825 8.20312 152.099 8.20312H142.197V28.3097ZM148.968 23.0251V13.4878H151.815C154.662 13.4878 156.61 15.1871 156.61 18.2564C156.61 21.3258 154.662 23.0251 151.815 23.0251H148.968Z" fill="white"/>
<path d="M165.916 28.3097H172.695V8.20312H165.916V28.3097Z" fill="white"/>
<path d="M191.004 28.3097H198.015L189.225 8.20312H182.561L173.771 28.3097H180.631L181.983 24.8044H189.617L191.004 28.3097ZM183.887 19.9201L185.835 14.8668L187.793 19.9201H183.887Z" fill="white"/>
<path d="M105.898 57.4817C109.831 57.4817 112.936 56.0493 114.911 53.4604L110.631 49.6437C110.141 50.36 109.486 50.948 108.721 51.3583C107.956 51.7686 107.104 51.9891 106.236 52.0013C103.425 52.0013 101.53 50.0441 101.53 46.9747C101.53 43.9053 103.425 41.948 106.236 41.948C107.104 41.9603 107.956 42.1808 108.721 42.5911C109.486 43.0014 110.141 43.5894 110.631 44.3057L114.911 40.4801C112.909 37.9 109.804 36.4766 105.898 36.4766C99.4392 36.4766 94.6973 40.8182 94.6973 46.9925C94.6973 53.1668 99.4125 57.4817 105.898 57.4817Z" fill="white"/>
<path d="M126.966 57.4817C133.505 57.4817 138.301 53.0334 138.301 46.9747C138.301 40.916 133.479 36.4766 126.966 36.4766C120.454 36.4766 115.623 40.9249 115.623 46.9925C115.623 53.06 120.418 57.4817 126.966 57.4817ZM126.966 52.0013C124.466 52.0013 122.456 50.1063 122.456 46.9747C122.456 43.843 124.466 41.948 126.966 41.948C129.466 41.948 131.468 43.843 131.468 46.9747C131.468 50.1063 129.457 52.0013 126.966 52.0013Z" fill="white"/>
<path d="M164.884 57.0196L164.831 36.9219H159.279L152.901 47.5979L146.353 36.9219H140.783V57.0196H146.958V48.1762L151.317 55.2135H154.306L158.675 47.8648L158.728 57.0196H164.884Z" fill="white"/>
<path d="M177.838 36.9219H168.176V57.0196H174.946V52.0819H177.847C183.451 52.0819 187.01 49.1549 187.01 44.5019C187.01 39.8489 183.443 36.9219 177.838 36.9219ZM177.411 46.8595H174.937V42.1442H177.411C179.279 42.1442 180.169 43.0339 180.169 44.5019C180.169 45.9698 179.279 46.8595 177.411 46.8595Z" fill="white"/>
<path d="M200.043 57.4817C206.591 57.4817 211.386 53.0334 211.386 46.9747C211.386 40.916 206.591 36.4766 200.043 36.4766C193.495 36.4766 188.699 40.9249 188.699 46.9925C188.699 53.06 193.495 57.4817 200.043 57.4817ZM200.043 52.0013C197.543 52.0013 195.532 50.1063 195.532 46.9747C195.532 43.843 197.543 41.948 200.043 41.948C202.543 41.948 204.553 43.843 204.553 46.9747C204.553 50.1063 202.543 52.0013 200.043 52.0013Z" fill="white"/>
<path d="M227.053 36.9219V46.0499L219.411 36.9219H213.842V57.0196H220.452V47.8915L228.085 57.0196H233.655V36.9219H227.053Z" fill="white"/>
<path d="M243.584 51.9128V49.2438H252.089V44.3862H243.584V42.0375H253.263V36.9219H236.92V57.0196H253.637V51.9128H243.584Z" fill="white"/>
<path d="M269.455 36.9219V46.0499L261.812 36.9219H256.252V57.0196H262.862V47.8915L270.487 57.0196H276.056V36.9219H269.455Z" fill="white"/>
<path d="M283.69 57.0196H290.47V42.1798H296.35V36.9219H277.801V42.1798H283.69V57.0196Z" fill="white"/>
<path d="M305.612 57.4816C311.84 57.4816 314.972 54.3766 314.972 50.7023C314.972 43.3002 303.86 45.302 303.86 42.8909C303.86 42.2059 304.491 41.6276 306.475 41.6276C308.432 41.6792 310.349 42.1912 312.071 43.1223L314.082 38.2558C311.74 37.0481 309.136 36.4369 306.502 36.4764C300.274 36.4764 297.143 39.5191 297.143 43.2557C297.143 50.7556 308.255 48.7094 308.255 51.2628C308.255 51.9567 307.57 52.3571 305.639 52.3571C303.309 52.3137 301.029 51.6801 299.011 50.5154L296.822 55.462C299.535 56.8659 302.559 57.5606 305.612 57.4816Z" fill="white"/>
<path d="M37.6071 46.0937L0.0273438 12.7755L12.6785 0.0976562L37.5893 20.8181L62.5802 0.0976562L75.2402 12.7755L37.6071 46.0937Z" fill="url(#paint0_linear_134_4364)"/>
<path opacity="0.57" d="M41.3965 17.6954L62.5796 0.0976562L75.2396 12.7755L42.0637 42.1347L42.2506 36.4763L41.3965 17.6954Z" fill="url(#paint1_linear_134_4364)"/>
<path d="M62.2071 65.64L62.0648 65.4977C57.7685 61.2229 54.3627 56.1385 52.0444 50.5387C49.7261 44.939 48.5414 38.9351 48.5588 32.8744C48.5762 26.8138 49.7953 20.8168 52.1457 15.2304C54.496 9.64405 57.9309 4.57928 62.2516 0.329179L62.5808 0L75.2408 12.7757L74.8582 13.1049C72.2221 15.6884 70.1265 18.7708 68.6938 22.1724C67.261 25.574 66.5198 29.2268 66.5131 32.9179C66.4912 36.603 67.2099 40.255 68.6267 43.657C70.0434 47.059 72.1293 50.1417 74.7604 52.722L74.9027 52.8643L62.2071 65.64Z" fill="url(#paint2_linear_134_4364)"/>
<path opacity="0.57" d="M33.8347 17.696L12.6783 0.0449219L0.125 12.7761L32.945 41.8773L33.034 36.4859L33.8347 17.696Z" fill="url(#paint3_linear_134_4364)"/>
<path d="M13.061 65.64L0.356522 52.9088L0.49887 52.7664C3.11962 50.1691 5.19824 47.077 6.61402 43.6697C8.02981 40.2623 8.75454 36.6076 8.74613 32.9179C8.74651 29.2345 8.00906 25.5883 6.5773 22.1946C5.14555 18.8009 3.0485 15.7283 0.409903 13.1582L0.0273438 12.8202L12.6785 0L13.061 0.329179C17.3875 4.58204 20.8234 9.65418 23.1682 15.2495C25.5129 20.8448 26.7195 26.8511 26.7175 32.9179C26.754 38.9862 25.5728 45.0001 23.2439 50.6039C20.915 56.2076 17.4857 61.2872 13.1589 65.5421L13.061 65.64Z" fill="url(#paint4_linear_134_4364)"/>
<defs>
<linearGradient id="paint0_linear_134_4364" x1="37.6338" y1="46.3161" x2="37.6338" y2="-0.222627" gradientUnits="userSpaceOnUse">
<stop stop-color="#B81D24"/>
<stop offset="0.88" stop-color="#E50914"/>
</linearGradient>
<linearGradient id="paint1_linear_134_4364" x1="42.82" y1="21.7701" x2="62.7664" y2="20.3822" gradientUnits="userSpaceOnUse">
<stop stop-opacity="0"/>
<stop offset="1"/>
</linearGradient>
<linearGradient id="paint2_linear_134_4364" x1="61.8957" y1="65.9603" x2="61.8957" y2="-0.453733" gradientUnits="userSpaceOnUse">
<stop stop-color="#B81D24"/>
<stop offset="1" stop-color="#E50914"/>
</linearGradient>
<linearGradient id="paint3_linear_134_4364" x1="31.2991" y1="20.97" x2="15.543" y2="21.0145" gradientUnits="userSpaceOnUse">
<stop stop-opacity="0"/>
<stop offset="1"/>
</linearGradient>
<linearGradient id="paint4_linear_134_4364" x1="13.3724" y1="65.9603" x2="13.3724" y2="-0.453733" gradientUnits="userSpaceOnUse">
<stop stop-color="#B81D24"/>
<stop offset="1" stop-color="#E50914"/>
</linearGradient>
</defs>
</svg>
