<svg width="207" height="90" viewBox="0 0 207 90" fill="none" xmlns="http://www.w3.org/2000/svg">
<path d="M15.05 89.7144L15.0183 77.2305H11.5404L7.56187 83.884L3.47793 77.2305H0V89.7144H3.85207V84.2196L6.57645 88.5871H8.43135L11.1557 84.0256L11.1873 89.7144H15.05Z" fill="white"/>
<path d="M21.251 86.5377V84.9018H26.5575V81.866H21.251V80.4137H27.2899V77.2363H17.0933V89.7203H27.5271V86.5429H21.251V86.5377Z" fill="white"/>
<path d="M29.1514 89.7144H35.3379C39.5535 89.7144 42.4149 87.3393 42.4149 83.4698C42.4149 79.6004 39.5272 77.2305 35.3379 77.2305H29.1514V89.7144ZM33.367 86.4322V80.5127H35.1429C36.9135 80.5127 38.136 81.5613 38.136 83.4698C38.136 85.3783 36.9135 86.4322 35.1429 86.4322H33.367Z" fill="white"/>
<path d="M43.9595 89.7144H48.1751V77.2305H43.9595V89.7144Z" fill="white"/>
<path d="M59.6151 89.7144H63.9836L58.4927 77.2305H54.335L48.8599 89.7144H53.1599L54.003 87.5385H58.7456L59.6151 89.7144ZM55.1676 84.508L56.3901 81.3621L57.6074 84.508H55.1676Z" fill="white"/>
<path d="M76.5192 89.9988C78.9749 89.9988 80.9088 89.1074 82.1471 87.503L79.4755 85.1331C78.8537 86.0349 77.8313 86.5802 76.7353 86.596C74.9805 86.596 73.7948 85.3795 73.7948 83.4501C73.7948 81.5206 74.9805 80.3042 76.7353 80.3042C77.8313 80.3199 78.8537 80.8652 79.4755 81.767L82.1471 79.3971C80.9088 77.7927 78.9854 76.9014 76.5192 76.9014C72.488 76.9014 69.5317 79.5911 69.5317 83.4239C69.5317 87.2566 72.488 89.9988 76.5192 89.9988Z" fill="white"/>
<path d="M89.6839 89.9984C93.7678 89.9984 96.761 87.251 96.761 83.4707C96.761 79.6904 93.7678 76.9482 89.6839 76.9482C85.6 76.9482 82.6016 79.6957 82.6016 83.4707C82.6016 87.2458 85.5947 89.9984 89.6839 89.9984ZM89.6839 86.5956C88.103 86.5956 86.8699 85.4159 86.8699 83.4497C86.8699 81.4836 88.1241 80.3039 89.6839 80.3039C91.2437 80.3039 92.4926 81.4836 92.4926 83.4497C92.4926 85.4159 91.2384 86.5956 89.6839 86.5956Z" fill="white"/>
<path d="M113.35 89.7144L113.297 77.2305H109.819L105.841 83.884L101.757 77.2305H98.2788V89.7144H102.131V84.2196L104.855 88.5871H106.721L109.445 84.0256L109.477 89.7144H113.35Z" fill="white"/>
<path d="M121.427 77.2305H115.404V89.7144H119.62V86.6472H121.427C124.926 86.6472 127.145 84.8278 127.145 81.9283C127.145 79.0289 124.926 77.2305 121.427 77.2305ZM121.159 83.4017H119.62V80.476H121.159C122.329 80.476 122.882 81.0318 122.882 81.9388C122.882 82.8459 122.329 83.4017 121.159 83.4017Z" fill="white"/>
<path d="M135.287 89.9975C139.371 89.9975 142.364 87.2501 142.364 83.4697C142.364 79.6894 139.371 76.9473 135.287 76.9473C131.203 76.9473 128.205 79.6947 128.205 83.4697C128.205 87.2448 131.214 89.9975 135.287 89.9975ZM135.287 86.5947C133.706 86.5947 132.473 85.415 132.473 83.4488C132.473 81.4826 133.727 80.3029 135.287 80.3029C136.847 80.3029 138.101 81.4826 138.101 83.4488C138.101 85.415 136.847 86.5947 135.287 86.5947Z" fill="white"/>
<path d="M152.138 77.2305V82.9036L147.395 77.2305H143.917V89.7144H148.038V84.0413L152.807 89.7144H156.28V77.2305H152.138Z" fill="white"/>
<path d="M162.457 86.5387V84.9028H167.763V81.867H162.457V80.4147H168.495V77.2373H158.299V89.7213H168.727V86.5439H162.457V86.5387Z" fill="white"/>
<path d="M178.597 77.2305V82.9036L173.854 77.2305H170.376V89.7144H174.497V84.0413L179.24 89.7144H182.718V77.2305H178.597Z" fill="white"/>
<path d="M187.481 89.7144H191.697V80.497H195.386V77.2305H183.792V80.497H187.481V89.7144Z" fill="white"/>
<path d="M201.161 89.9976C205.05 89.9976 207 88.0734 207 85.8031C207 81.1996 200.065 82.4475 200.065 80.9532C200.065 80.5232 200.461 80.1667 201.699 80.1667C202.921 80.1982 204.118 80.518 205.193 81.0947L206.463 78.0432C204.998 77.2987 203.364 76.9264 201.72 76.9579C197.831 76.9579 195.876 78.8454 195.876 81.1524C195.876 85.8083 202.811 84.5447 202.811 86.1124C202.811 86.5371 202.379 86.7888 201.182 86.7888C199.744 86.7573 198.332 86.3694 197.083 85.6563L195.723 88.7235C197.399 89.5991 199.27 90.0343 201.161 89.9976Z" fill="white"/>
<path d="M103.485 39.9139L71.208 11.0623L82.0744 0.0820312L103.485 18.0295L124.937 0.0820312L135.791 11.0623L103.485 39.9139Z" fill="url(#paint0_linear_151_72)"/>
<path opacity="0.57" d="M106.741 15.3268L124.937 0.0820312L135.792 11.0623L107.309 36.4683L107.473 31.5954L106.741 15.3268Z" fill="url(#paint1_linear_151_72)"/>
<path d="M124.609 56.8375L124.486 56.7147C116.998 49.2268 112.824 39.0597 112.888 28.4773C112.882 17.8831 117.121 7.7277 124.668 0.286645L124.955 0L135.792 11.0621L135.464 11.3488C130.891 15.8766 128.315 22.0424 128.303 28.4773C128.257 34.918 130.815 41.1013 135.399 45.6291L135.516 45.752L124.609 56.8375Z" fill="url(#paint2_linear_151_72)"/>
<path opacity="0.57" d="M100.272 15.3258L82.0754 0.0400391L71.291 11.0612L99.458 36.2684L99.54 31.5885L100.272 15.3258Z" fill="url(#paint3_linear_151_72)"/>
<path d="M82.4022 56.8375L71.4949 45.8105L71.612 45.6876C81.0673 36.2225 81.0556 20.8958 71.5886 11.4482C71.571 11.4307 71.5534 11.4131 71.53 11.3897L71.208 11.1031L82.0743 0L82.4022 0.286645C89.9197 7.75695 94.135 17.9241 94.1116 28.5182C94.1877 39.1007 90.0133 49.2678 82.5135 56.7439L82.4022 56.8375Z" fill="url(#paint4_linear_151_72)"/>
<defs>
<linearGradient id="paint0_linear_151_72" x1="103.503" y1="40.107" x2="103.503" y2="-0.192913" gradientUnits="userSpaceOnUse">
<stop stop-color="#B81D24"/>
<stop offset="0.88" stop-color="#E50914"/>
</linearGradient>
<linearGradient id="paint1_linear_151_72" x1="107.964" y1="18.8368" x2="125.089" y2="17.659" gradientUnits="userSpaceOnUse">
<stop stop-opacity="0"/>
<stop offset="1"/>
</linearGradient>
<linearGradient id="paint2_linear_151_72" x1="124.34" y1="57.1125" x2="124.34" y2="-0.397792" gradientUnits="userSpaceOnUse">
<stop stop-color="#B81D24"/>
<stop offset="1" stop-color="#E50914"/>
</linearGradient>
<linearGradient id="paint3_linear_151_72" x1="98.0763" y1="18.1396" x2="84.5402" y2="18.1689" gradientUnits="userSpaceOnUse">
<stop stop-opacity="0"/>
<stop offset="1"/>
</linearGradient>
<linearGradient id="paint4_linear_151_72" x1="82.6598" y1="-637.866" x2="82.6598" y2="-637.866" gradientUnits="userSpaceOnUse">
<stop stop-color="#B81D24"/>
<stop offset="1" stop-color="#E50914"/>
</linearGradient>
</defs>
</svg>
