<svg width="21" height="18" viewBox="0 0 21 18" fill="none" xmlns="http://www.w3.org/2000/svg">
<path d="M20.125 4.36719C20.0391 6.25781 18.75 8.79297 16.2148 12.0586C13.5938 15.4531 11.4023 17.1719 9.55469 17.1719C8.4375 17.1719 7.49219 16.1406 6.71875 14.0781C5.21484 8.49219 4.57031 5.26953 3.32422 5.26953C3.15234 5.26953 2.67969 5.57031 1.82031 6.17188L0.917969 5.01172C3.10938 3.03516 5.21484 0.886719 6.54688 0.757812C8.05078 0.628906 8.99609 1.66016 9.33984 3.85156C10.543 11.6289 11.1016 12.832 13.3359 9.26562C14.1523 8.01953 14.582 7.03125 14.668 6.38672C14.8398 4.41016 13.1211 4.53906 11.918 5.05469C12.8633 1.96094 14.668 0.457031 17.332 0.542969C19.3086 0.585938 20.2539 1.875 20.125 4.36719Z" fill="white"/>
</svg>
