<svg width="24" height="24" viewBox="0 0 24 24" fill="none" xmlns="http://www.w3.org/2000/svg">
<path d="M22.7051 6.75195C23.1973 8.47461 23.1973 12.166 23.1973 12.166C23.1973 12.166 23.1973 15.8164 22.7051 17.5801C22.459 18.5645 21.6797 19.3027 20.7363 19.5488C18.9727 20 12 20 12 20C12 20 4.98633 20 3.22266 19.5488C2.2793 19.3027 1.5 18.5645 1.25391 17.5801C0.761719 15.8164 0.761719 12.166 0.761719 12.166C0.761719 12.166 0.761719 8.47461 1.25391 6.75195C1.5 5.76758 2.2793 4.98828 3.22266 4.74219C4.98633 4.25 12 4.25 12 4.25C12 4.25 18.9727 4.25 20.7363 4.74219C21.6797 4.98828 22.459 5.76758 22.7051 6.75195ZM9.70312 15.4883L15.5273 12.166L9.70312 8.84375V15.4883Z" fill="white"/>
</svg>
